<svg id="visual" viewBox="0 0 900 600" width="900" height="600" xmlns="http://www.w3.org/2000/svg" xmlns:xlink="http://www.w3.org/1999/xlink" version="1.1"><rect x="0" y="0" width="900" height="600" fill="#000000"></rect><defs><linearGradient id="grad1_0" x1="33.3%" y1="0%" x2="100%" y2="100%"><stop offset="20%" stop-color="#000000" stop-opacity="1"></stop><stop offset="80%" stop-color="#000000" stop-opacity="1"></stop></linearGradient></defs><defs><linearGradient id="grad2_0" x1="0%" y1="0%" x2="66.7%" y2="100%"><stop offset="20%" stop-color="#000000" stop-opacity="1"></stop><stop offset="80%" stop-color="#000000" stop-opacity="1"></stop></linearGradient></defs><g transform="translate(900, 0)"><path d="M0 540.8C-52.3 524.3 -104.5 507.8 -160.7 494.5C-216.9 481.3 -277 471.4 -317.9 437.5C-358.8 403.7 -380.5 345.9 -409.4 297.4C-438.2 248.9 -474.3 209.6 -497.4 161.6C-520.5 113.6 -530.7 56.8 -540.8 0L0 0Z" fill="#5b9d65"></path></g><g transform="translate(0, 600)"><path d="M0 -540.8C51.2 -513.5 102.3 -486.1 151.7 -467C201.1 -447.9 248.8 -437 302.7 -416.6C356.7 -396.3 416.9 -366.4 437.5 -317.9C458.2 -269.4 439.2 -202.3 449.8 -146.2C460.5 -90.1 500.6 -45 540.8 0L0 0Z" fill="#5b9d65"></path></g></svg>