<svg id="visual" viewBox="0 0 900 600" width="900" height="600" xmlns="http://www.w3.org/2000/svg" xmlns:xlink="http://www.w3.org/1999/xlink" version="1.1"><rect x="0" y="0" width="900" height="600" fill="#000000"></rect><path d="M0 296L129 296L129 255L257 255L257 284L386 284L386 332L514 332L514 353L643 353L643 348L771 348L771 357L900 357L900 248L900 601L900 601L771 601L771 601L643 601L643 601L514 601L514 601L386 601L386 601L257 601L257 601L129 601L129 601L0 601Z" fill="#096756"></path><path d="M0 362L129 362L129 456L257 456L257 458L386 458L386 457L514 457L514 443L643 443L643 434L771 434L771 444L900 444L900 383L900 601L900 601L771 601L771 601L643 601L643 601L514 601L514 601L386 601L386 601L257 601L257 601L129 601L129 601L0 601Z" fill="#027d65"></path><path d="M0 531L129 531L129 493L257 493L257 475L386 475L386 507L514 507L514 539L643 539L643 519L771 519L771 448L900 448L900 471L900 601L900 601L771 601L771 601L643 601L643 601L514 601L514 601L386 601L386 601L257 601L257 601L129 601L129 601L0 601Z" fill="#009473"></path></svg>